<svg width="24.000000" height="24.000000" viewBox="0 0 24 24" fill="none" xmlns="http://www.w3.org/2000/svg" xmlns:xlink="http://www.w3.org/1999/xlink">
	<desc>
			Created with Pixso.
	</desc>
	<defs/>
	<rect id="feather-icon / phone" rx="-0.500000" width="23.000000" height="23.000000" transform="translate(0.500000 0.500000)" fill="#FFFFFF" fill-opacity="0"/>
	<path id="Shape" d="M19.99 18.41C20 18.86 19.81 19.3 19.47 19.6C19.14 19.91 18.69 20.06 18.24 20.02C15.77 19.75 13.39 18.91 11.3 17.55C9.35 16.32 7.71 14.67 6.47 12.72C5.11 10.62 4.27 8.24 4 5.75C3.96 5.3 4.11 4.85 4.42 4.52C4.72 4.19 5.15 4 5.6 4L8.02 4C8.82 3.99 9.51 4.58 9.62 5.38C9.73 6.15 9.92 6.91 10.19 7.64C10.41 8.23 10.27 8.89 9.83 9.34L8.8 10.36C9.95 12.37 11.62 14.04 13.63 15.19L14.65 14.16C15.1 13.72 15.76 13.58 16.35 13.8C17.08 14.07 17.84 14.26 18.61 14.36C19.42 14.48 20.01 15.18 19.99 16L19.99 18.41Z" stroke="#9DA4BD" stroke-opacity="1.000000" stroke-width="1.000000" stroke-linejoin="round"/>
</svg>
