<svg width="65.968140" height="55.459961" viewBox="0 0 65.9681 55.46" fill="none" xmlns="http://www.w3.org/2000/svg" xmlns:xlink="http://www.w3.org/1999/xlink">
	<desc>
			Created with Pixso.
	</desc>
	<defs>
		<clipPath id="clip1_6">
			<rect rx="-0.500000" width="64.968163" height="54.459999" transform="translate(0.500000 0.500000)" fill="white" fill-opacity="0"/>
		</clipPath>
	</defs>
	<rect rx="-0.500000" width="64.968163" height="54.459999" transform="translate(0.500000 0.500000)" fill="#FFFFFF" fill-opacity="0"/>
	<g clip-path="url(#clip1_6)">
		<path d="M37.46 16.87L36.21 15.87C36.01 15.7 35.76 15.62 35.51 15.65C35.26 15.67 35.03 15.8 34.87 16.01L17.52 36.83L17.79 37.14L22.08 33C21.94 32.93 21.82 32.82 21.75 32.68C21.68 32.54 21.65 32.38 21.68 32.22C21.71 32.06 21.8 31.92 21.92 31.82C22.04 31.72 22.19 31.66 22.34 31.66C22.48 31.66 22.62 31.71 22.73 31.8C22.84 31.88 22.92 32.01 22.96 32.15L28.63 26.66C28.72 26.58 28.82 26.54 28.94 26.54C29.05 26.54 29.16 26.58 29.24 26.66L29.53 26.88C29.63 26.95 29.75 26.98 29.86 26.97C29.98 26.95 30.09 26.89 30.17 26.8L37.58 18.12C37.66 18.03 37.72 17.93 37.75 17.81C37.79 17.7 37.8 17.58 37.79 17.46C37.78 17.34 37.75 17.23 37.69 17.13C37.63 17.02 37.56 16.93 37.46 16.87Z" fill="#303030" fill-opacity="1.000000" fill-rule="nonzero"/>
		<path d="M45.62 22.73C41.82 25.55 37.57 27.63 33.06 28.87C28.59 30.06 24.01 30.77 19.4 31C19.5 31.71 19.66 32.4 19.9 33.08C22.5 35.54 42.1 31.34 45.93 26.48C46.75 25.47 45.62 22.73 45.62 22.73ZM22.34 33C22.21 33 22.09 32.96 21.98 32.88C21.87 32.81 21.79 32.7 21.74 32.58C21.69 32.45 21.68 32.31 21.7 32.18C21.73 32.05 21.79 31.93 21.88 31.83C21.97 31.74 22.09 31.67 22.21 31.65C22.34 31.62 22.47 31.64 22.59 31.69C22.71 31.74 22.81 31.83 22.88 31.94C22.95 32.05 22.99 32.18 22.99 32.32C22.99 32.4 22.98 32.49 22.95 32.58C22.91 32.66 22.87 32.74 22.8 32.8C22.74 32.86 22.67 32.91 22.59 32.95C22.51 32.98 22.43 33 22.34 33Z" fill="#303030" fill-opacity="1.000000" fill-rule="nonzero"/>
		<path d="M3.82 21.29L3.98 20.59L6.47 21.18C6.67 21.58 6.8 22.02 6.84 22.47C6.89 22.94 6.86 23.42 6.75 23.88C6.63 24.53 6.34 25.13 5.93 25.62C5.53 26.09 5.02 26.44 4.46 26.62C3.87 26.81 3.25 26.84 2.65 26.7C2.05 26.56 1.49 26.26 1.05 25.81C0.61 25.39 0.29 24.85 0.14 24.25C-0.03 23.59 -0.03 22.9 0.14 22.25C0.24 21.76 0.43 21.29 0.68 20.86C0.93 20.48 1.26 20.16 1.64 19.93L1.99 20.49C1.66 20.7 1.37 20.98 1.16 21.31C0.94 21.65 0.79 22.03 0.72 22.42C0.6 22.94 0.61 23.48 0.75 24C0.88 24.48 1.14 24.92 1.49 25.27C1.85 25.63 2.31 25.88 2.8 26C3.28 26.14 3.79 26.14 4.26 26C4.72 25.84 5.13 25.56 5.46 25.18C5.79 24.78 6.03 24.3 6.13 23.78C6.29 23.14 6.25 22.47 6.02 21.86L3.82 21.29Z" fill="#303030" fill-opacity="1.000000" fill-rule="nonzero"/>
		<path d="M9.24 15L7.01 18.1L7.97 19.89L7.53 20.52L3.99 13.77L4.4 13.17L11.6 14.8L11.15 15.41L9.24 15ZM8.61 14.83L4.78 13.93L6.69 17.53L8.61 14.83Z" fill="#303030" fill-opacity="1.000000" fill-rule="nonzero"/>
		<path d="M8.61 8.55L9.18 8.1L12.83 13.2L15.83 10.85L16.2 11.36L12.63 14.15L8.61 8.55Z" fill="#303030" fill-opacity="1.000000" fill-rule="nonzero"/>
		<path d="M14.64 4.38L15.28 4.08L17.81 9.86L21.22 8.23L21.47 8.82L17.41 10.75L14.64 4.38Z" fill="#303030" fill-opacity="1.000000" fill-rule="nonzero"/>
		<path d="M27.25 6.67L27.39 7.31L22.78 8.43L21.25 1.62L25.73 0.53L25.86 1.15L22.04 2.08L22.58 4.5L25.95 3.66L26.09 4.29L22.71 5.11L23.29 7.64L27.25 6.67Z" fill="#303030" fill-opacity="1.000000" fill-rule="nonzero"/>
		<path d="M33.83 6.92L32.23 4.72C32.05 4.74 31.87 4.74 31.69 4.72L29.89 4.79L29.96 7.01L29.25 7.01L29.03 0.01L31.58 0C32.3 -0.07 33.02 0.13 33.61 0.57C33.85 0.77 34.05 1.04 34.19 1.34C34.33 1.64 34.39 1.97 34.39 2.31C34.42 2.8 34.29 3.29 34.04 3.7C33.76 4.1 33.37 4.4 32.93 4.56L34.6 6.89L33.83 6.92ZM33.16 3.63C33.33 3.47 33.46 3.27 33.55 3.04C33.63 2.81 33.66 2.57 33.64 2.33C33.65 2.08 33.6 1.84 33.5 1.62C33.41 1.4 33.26 1.2 33.08 1.05C32.64 0.73 32.11 0.59 31.58 0.63L29.76 0.7L29.87 4.2L31.65 4.14C32.2 4.17 32.73 3.99 33.16 3.63Z" fill="#303030" fill-opacity="1.000000" fill-rule="nonzero"/>
		<path d="M38.89 5.07L38.54 7.45L37.85 7.35L38.2 5L36.22 0L36.97 0.12L38.66 4.37L41.53 0.85L42.2 1L38.89 5.07Z" fill="#303030" fill-opacity="1.000000" fill-rule="nonzero"/>
		<path d="M48.35 4.64L49.19 5.78L48.82 6.07L47.99 4.91L47.46 6.22L47.06 6.05L47.6 4.73L46.22 4.92L46.22 4.44L47.58 4.29L46.74 3.15L47.11 2.85L47.85 4L48.36 2.67L48.77 2.85L48.29 4.19L49.66 4L49.66 4.48L48.35 4.64Z" fill="#303030" fill-opacity="1.000000" fill-rule="nonzero"/>
		<path d="M51.55 12.71C51.32 12.34 51.18 11.93 51.14 11.5L51.7 11.24C51.75 11.63 51.87 12.01 52.07 12.35C52.28 12.74 52.56 13.08 52.89 13.35C53.23 13.7 53.67 13.92 54.13 13.99C54.3 14 54.47 13.97 54.63 13.91C54.79 13.84 54.93 13.73 55.03 13.59C55.11 13.5 55.17 13.4 55.21 13.28C55.25 13.16 55.26 13.04 55.25 12.91C55.22 12.67 55.14 12.44 55.02 12.23C54.84 11.92 54.65 11.62 54.44 11.33C54.19 10.99 53.96 10.62 53.75 10.24C53.6 9.95 53.51 9.62 53.5 9.29C53.5 8.92 53.64 8.57 53.88 8.29C54.08 8.03 54.36 7.83 54.67 7.72C55.02 7.62 55.39 7.62 55.73 7.72C56.18 7.88 56.59 8.12 56.95 8.44C57.24 8.7 57.5 9 57.72 9.32C57.93 9.63 58.08 9.97 58.17 10.32L57.63 10.62C57.53 10.29 57.39 9.97 57.21 9.68C57.02 9.43 56.81 9.19 56.57 9C56.23 8.66 55.8 8.44 55.33 8.38C55.16 8.37 54.99 8.4 54.83 8.47C54.67 8.54 54.54 8.65 54.43 8.79C54.35 8.88 54.29 8.99 54.25 9.11C54.21 9.23 54.2 9.35 54.21 9.47C54.23 9.73 54.31 9.97 54.44 10.18C54.57 10.41 54.77 10.72 55.02 11.07C55.28 11.42 55.51 11.78 55.71 12.15C55.87 12.44 55.96 12.76 55.97 13.09C55.97 13.47 55.84 13.82 55.6 14.09C55.39 14.36 55.11 14.56 54.79 14.66C54.45 14.77 54.08 14.77 53.73 14.66C53.28 14.51 52.87 14.27 52.51 13.95C52.12 13.59 51.8 13.17 51.55 12.71Z" fill="#303030" fill-opacity="1.000000" fill-rule="nonzero"/>
		<path d="M61.18 14.17L59.83 12.17L60.33 11.8L63.44 16.43L62.94 16.81L61.59 14.81L56.59 18.45L56.19 17.85L61.18 14.17Z" fill="#303030" fill-opacity="1.000000" fill-rule="nonzero"/>
		<path d="M59.03 22.38C59.21 21.78 59.54 21.24 59.99 20.83C60.44 20.41 60.98 20.12 61.56 20C62.16 19.85 62.78 19.88 63.36 20.07C63.92 20.26 64.43 20.6 64.82 21.07C65.24 21.56 65.52 22.16 65.64 22.81C65.8 23.44 65.8 24.1 65.64 24.74C65.46 25.34 65.13 25.88 64.68 26.3C64.22 26.72 63.67 27.02 63.07 27.15C62.47 27.29 61.85 27.26 61.26 27.08C60.7 26.89 60.19 26.54 59.8 26.08C59.39 25.58 59.11 24.99 58.99 24.34C58.84 23.7 58.86 23.02 59.03 22.38ZM60.29 25.57C60.61 25.95 61.02 26.23 61.48 26.37C61.96 26.52 62.47 26.54 62.95 26.42C63.43 26.31 63.89 26.08 64.26 25.74C64.61 25.4 64.87 24.96 65.02 24.49C65.15 23.98 65.16 23.45 65.05 22.93C64.95 22.42 64.72 21.95 64.39 21.55C64.06 21.16 63.63 20.88 63.16 20.74C62.68 20.6 62.17 20.6 61.69 20.74C61.2 20.83 60.75 21.07 60.38 21.42C60.03 21.77 59.77 22.2 59.63 22.68C59.5 23.19 59.5 23.73 59.63 24.24C59.73 24.73 59.96 25.19 60.29 25.57Z" fill="#303030" fill-opacity="1.000000" fill-rule="nonzero"/>
		<path d="M58.31 34L60.79 33C60.79 32.81 60.84 32.63 60.89 32.45L61.36 30.63L59.33 30.08L59.51 29.37L65.98 31.18L65.33 33.72C65.18 34.45 64.79 35.11 64.22 35.57C63.96 35.77 63.66 35.89 63.34 35.94C63.03 35.99 62.71 35.96 62.4 35.85C61.94 35.75 61.53 35.48 61.23 35.1C60.93 34.72 60.77 34.24 60.77 33.75L58.13 34.75L58.31 34ZM61.51 34.27C61.63 34.49 61.78 34.67 61.96 34.82C62.14 34.97 62.35 35.08 62.58 35.15C62.8 35.21 63.04 35.22 63.27 35.19C63.5 35.15 63.72 35.07 63.92 34.95C64.34 34.59 64.63 34.09 64.73 33.53L65.19 31.74L61.94 30.82L61.48 32.62C61.31 33.16 61.32 33.75 61.51 34.27Z" fill="#303030" fill-opacity="1.000000" fill-rule="nonzero"/>
		<path d="M54.87 40.44L54.38 40.05L57.25 36.1L62.59 40.33L59.82 44.16L59.33 43.77L61.68 40.54L59.76 39.03L57.67 41.92L57.19 41.54L59.33 38.65L57.35 37.08L54.87 40.44Z" fill="#303030" fill-opacity="1.000000" fill-rule="nonzero"/>
		<path d="M52.63 48.4L51.26 48.49L51.26 48.01L52.63 48L51.89 46.8L52.27 46.55L53 47.76L53.59 46.41L54 46.64L53.35 47.9L54.72 47.82L54.72 48.31L53.33 48.31L54.07 49.51L53.69 49.76L52.97 48.55L52.34 49.85L51.93 49.61L52.63 48.4Z" fill="#303030" fill-opacity="1.000000" fill-rule="nonzero"/>
		<path d="M40.19 47.6L41.35 48.28C41.54 47.89 41.81 47.54 42.14 47.27C42.47 47 42.85 46.8 43.26 46.7C43.64 46.57 44.04 46.53 44.44 46.56C44.78 46.59 45.11 46.72 45.4 46.92C45.65 47.13 45.84 47.41 45.93 47.73C46.05 48.12 46.03 48.54 45.88 48.92C45.63 49.44 45.31 49.91 44.92 50.31C45.23 50.49 45.53 50.71 45.79 50.97C45.97 51.16 46.1 51.4 46.18 51.65C46.23 51.86 46.23 52.07 46.19 52.27C46.15 52.47 46.06 52.66 45.93 52.82C45.68 53.21 45.3 53.48 44.86 53.59C44.48 53.75 44.06 53.75 43.67 53.59C43.5 53.52 43.35 53.4 43.23 53.25C43.11 53.11 43.03 52.93 42.98 52.75C42.88 52.41 42.91 52.06 43.05 51.75C43.27 51.29 43.56 50.88 43.9 50.52L41.6 49.17C41.51 49.65 41.49 50.13 41.54 50.6L40.96 50.6C40.92 50.02 40.98 49.43 41.15 48.86L39.94 48.16L40.19 47.6ZM41.86 48.6L44.39 50.07C44.72 49.74 45 49.35 45.21 48.92C45.31 48.63 45.31 48.31 45.21 48.03C45.16 47.85 45.08 47.69 44.96 47.56C44.84 47.43 44.7 47.33 44.54 47.28C44.14 47.13 43.71 47.13 43.31 47.28C42.99 47.36 42.68 47.53 42.43 47.75C42.17 47.98 41.96 48.26 41.82 48.57L41.86 48.6ZM45.45 52.6C45.52 52.49 45.56 52.37 45.57 52.24C45.58 52.12 45.57 51.99 45.53 51.86C45.47 51.67 45.37 51.49 45.22 51.34C44.98 51.13 44.71 50.95 44.43 50.79C44.14 51.09 43.89 51.43 43.67 51.79C43.56 52.02 43.53 52.29 43.6 52.53C43.63 52.65 43.68 52.76 43.75 52.85C43.83 52.94 43.92 53.01 44.02 53.06C44.26 53.16 44.53 53.16 44.77 53.06C45.03 52.99 45.26 52.83 45.42 52.59L45.45 52.6Z" fill="#303030" fill-opacity="1.000000" fill-rule="nonzero"/>
		<path d="M28.52 55.32L28.66 48.32L29.34 48.32L29.23 53.92L31.95 49.26L32.29 49.26L34.83 54L34.93 48.43L35.61 48.43L35.48 55.43L34.9 55.43L32.08 50.2L29.11 55.33L28.52 55.32Z" fill="#303030" fill-opacity="1.000000" fill-rule="nonzero"/>
		<path d="M25.19 48C25.63 48.43 25.94 48.99 26.1 49.6C26.25 50.21 26.24 50.85 26.06 51.46C25.91 52.07 25.59 52.64 25.16 53.09C24.73 53.52 24.2 53.83 23.61 53.97C23 54.11 22.36 54.09 21.76 53.91C21.16 53.75 20.6 53.44 20.15 53C19.72 52.56 19.41 52.02 19.26 51.42C19.11 50.79 19.12 50.14 19.29 49.52C19.46 48.91 19.78 48.34 20.22 47.9C20.64 47.46 21.16 47.15 21.73 47C22.34 46.85 22.98 46.87 23.58 47.06C24.18 47.22 24.74 47.54 25.19 48ZM21.93 47.65C21.46 47.76 21.03 48.01 20.7 48.37C20.34 48.73 20.09 49.19 19.97 49.7C19.83 50.2 19.83 50.72 19.97 51.23C20.08 51.71 20.32 52.16 20.67 52.51C21.03 52.87 21.47 53.14 21.96 53.28C22.45 53.4 22.96 53.4 23.44 53.28C23.91 53.15 24.34 52.91 24.69 52.56C25.04 52.19 25.29 51.73 25.41 51.23C25.55 50.72 25.55 50.19 25.41 49.69C25.29 49.2 25.05 48.76 24.71 48.41C24.34 48.04 23.89 47.77 23.4 47.65C22.92 47.51 22.41 47.51 21.93 47.65Z" fill="#303030" fill-opacity="1.000000" fill-rule="nonzero"/>
		<path d="M14.69 43L14.94 45.75C15.11 45.82 15.27 45.9 15.42 46L16.98 46.93L18.04 45L18.66 45.37L15.31 51.4L13.13 50.09C12.48 49.75 11.97 49.18 11.69 48.49C11.59 48.17 11.55 47.84 11.59 47.51C11.62 47.18 11.73 46.86 11.9 46.59C12.12 46.15 12.48 45.8 12.91 45.59C13.34 45.4 13.82 45.36 14.28 45.48L14.01 42.54L14.69 43ZM13.59 46.16C13.37 46.21 13.16 46.32 12.97 46.47C12.79 46.61 12.63 46.8 12.52 47.01C12.4 47.22 12.33 47.45 12.3 47.69C12.28 47.93 12.29 48.17 12.36 48.41C12.58 48.92 12.97 49.34 13.46 49.6L15 50.53L16.68 47.53L15.14 46.6C14.69 46.25 14.15 46.07 13.59 46.11L13.59 46.16Z" fill="#303030" fill-opacity="1.000000" fill-rule="nonzero"/>
		<path d="M9.02 38.31L9.45 37.86L12.75 41.41L7.97 46.29L4.78 42.85L5.22 42.4L7.93 45.31L9.57 43.58L7.19 41L7.65 40.54L10.07 43.14L11.85 41.33L9.02 38.31Z" fill="#303030" fill-opacity="1.000000" fill-rule="nonzero"/>
		<path d="M1.91 34.37L2.14 33L2.59 33.07L2.33 34.49L3.6 34L3.76 34.43L2.46 34.89L3.53 35.84L3.22 36.2L2.2 35.2L1.96 36.62L1.5 36.53L1.77 35.11L0.48 35.59L0.34 35.2L1.62 34.73L0.56 33.8L0.88 33.43L1.91 34.37Z" fill="#303030" fill-opacity="1.000000" fill-rule="nonzero"/>
	</g>
</svg>
