<svg aria-hidden="true" style="position: absolute; width: 0; height: 0; overflow: hidden;" version="1.1" xmlns="http://www.w3.org/2000/svg" xmlns:xlink="http://www.w3.org/1999/xlink">
<defs>
<symbol id="icon-mail" viewBox="0 0 32 32">
<path d="M5.315 9.274l11.185 9.726 11.187-9.728c0.194 0.184 0.313 0.445 0.313 0.735v11.986c0 0.557-0.449 1.007-1.003 1.007h-20.994c-0.564 0-1.003-0.451-1.003-1.007v-11.986c0-0.289 0.121-0.549 0.315-0.733zM6.004 8c-1.107 0-2.004 0.895-2.004 1.994v12.012c0 1.101 0.89 1.994 2.004 1.994h20.993c1.107 0 2.004-0.895 2.004-1.994v-12.012c0-1.101-0.89-1.994-2.004-1.994h-20.993zM16.5 17.7l-10-8.7h20l-10 8.7z"></path>
</symbol>
<symbol id="icon-map" viewBox="0 0 32 32">
<path d="M16.002 17.746c3.309 0 6-2.692 6-6s-2.691-6-6-6c-3.309 0-6 2.691-6 6s2.691 6 6 6zM16.002 6.746c2.758 0 5 2.242 5 5s-2.242 5-5 5c-2.758 0-5-2.242-5-5s2.242-5 5-5zM16 0c-6.618 0-12 5.316-12 12.001 0 7 6.001 14.161 10.376 19.194 0.016 0.020 0.718 0.805 1.586 0.805 0.002 0 0.073 0 0.077 0 0.867 0 1.57-0.785 1.586-0.805 4.377-5.033 10.377-12.193 10.377-19.194 0-6.685-5.383-12.001-12.002-12.001zM16.117 29.883c-0.021 0.020-0.082 0.064-0.135 0.098-0.010-0.027-0.084-0.086-0.129-0.133-3.665-4.217-9.853-11.334-9.853-17.847 0-5.514 4.487-10.001 10-10.001 5.516 0 10.002 4.487 10.002 10.002 0 6.512-6.188 13.629-9.885 17.881z"></path>
</symbol>
<symbol id="icon-phone" viewBox="0 0 24 24">
<path d="M23 16.92c0.016-0.714-0.236-1.404-0.673-1.943-0.46-0.566-1.129-0.967-1.925-1.080-0.8-0.098-1.695-0.314-2.586-0.646-0.433-0.159-0.893-0.218-1.344-0.174-0.663 0.064-1.307 0.349-1.819 0.855l-0.72 0.72c-1.77-1.117-3.36-2.667-4.583-4.589l0.726-0.726c0.322-0.33 0.563-0.726 0.707-1.156 0.212-0.632 0.214-1.336-0.039-2.011-0.289-0.753-0.518-1.644-0.644-2.595-0.104-0.714-0.456-1.345-0.963-1.804-0.539-0.486-1.256-0.779-2.027-0.771h-2.996c-0.088 0-0.182 0.004-0.273 0.012-0.824 0.075-1.542 0.478-2.033 1.066s-0.758 1.367-0.683 2.199c0.3 3.076 1.365 6.243 3.216 9.102 1.502 2.413 3.648 4.623 6.298 6.306 2.568 1.697 5.684 2.862 9.086 3.231 0.092 0.009 0.191 0.013 0.288 0.013 0.828-0.003 1.578-0.343 2.118-0.887s0.873-1.297 0.87-2.121zM21 16.92v3c0.001 0.28-0.109 0.53-0.29 0.712s-0.429 0.295-0.706 0.296c-3.149-0.336-5.961-1.391-8.263-2.912-2.428-1.543-4.359-3.537-5.702-5.694-1.697-2.62-2.655-5.481-2.924-8.238-0.024-0.268 0.064-0.526 0.229-0.724s0.403-0.33 0.678-0.355l3.088-0.005c0.271-0.003 0.507 0.094 0.687 0.256 0.17 0.154 0.288 0.366 0.323 0.608 0.142 1.072 0.408 2.117 0.757 3.025 0.081 0.216 0.080 0.447 0.010 0.658-0.049 0.145-0.131 0.281-0.242 0.395l-1.262 1.261c-0.324 0.324-0.379 0.814-0.162 1.201 1.584 2.785 3.839 4.957 6.381 6.378 0.397 0.222 0.882 0.144 1.195-0.166l1.27-1.27c0.166-0.164 0.377-0.257 0.598-0.279 0.152-0.015 0.31 0.005 0.459 0.060 1.022 0.381 2.070 0.636 3.034 0.754 0.241 0.034 0.462 0.166 0.615 0.355 0.147 0.181 0.231 0.412 0.226 0.682z"></path>
</symbol>
<symbol id="icon-x" viewBox="0 0 24 24">
<path d="M5.293 6.707l5.293 5.293-5.293 5.293c-0.391 0.391-0.391 1.024 0 1.414s1.024 0.391 1.414 0l5.293-5.293 5.293 5.293c0.391 0.391 1.024 0.391 1.414 0s0.391-1.024 0-1.414l-5.293-5.293 5.293-5.293c0.391-0.391 0.391-1.024 0-1.414s-1.024-0.391-1.414 0l-5.293 5.293-5.293-5.293c-0.391-0.391-1.024-0.391-1.414 0s-0.391 1.024 0 1.414z"></path>
</symbol>
<symbol id="icon-facebook" viewBox="0 0 32 32">
<path d="M21.328 5.312h2.912v-5.088c-0.496-0.080-2.24-0.224-4.256-0.224-4.208 0-7.088 2.64-7.088 7.504v4.496h-4.656v5.68h4.656v14.32h5.696v-14.32h4.464l0.704-5.68h-5.168v-3.92c0-1.648 0.432-2.768 2.736-2.768z"></path>
</symbol>
<symbol id="icon-instagram" viewBox="0 0 32 32">
<path d="M31.968 9.408c-0.080-1.712-0.352-2.88-0.752-3.888-0.4-1.072-1.024-2.032-1.856-2.832-0.8-0.816-1.76-1.456-2.832-1.856-1.008-0.384-2.176-0.672-3.872-0.736-1.712-0.080-2.256-0.096-6.608-0.096-4.336 0-4.88 0.016-6.592 0.080-1.696 0.080-2.864 0.352-3.888 0.752-1.072 0.4-2.032 1.024-2.832 1.856-0.816 0.8-1.44 1.76-1.84 2.816-0.4 1.024-0.672 2.192-0.752 3.888-0.080 1.712-0.096 2.256-0.096 6.608 0 4.336 0.016 4.88 0.096 6.592 0.080 1.696 0.352 2.864 0.736 3.888 0.416 1.072 1.040 2.032 1.856 2.832 0.8 0.816 1.776 1.44 2.832 1.84 1.024 0.4 2.176 0.672 3.888 0.752 1.696 0.064 2.24 0.080 6.592 0.080 4.336 0 4.88-0.016 6.592-0.080 1.696-0.080 2.864-0.352 3.888-0.752 2.144-0.832 3.84-2.528 4.672-4.672 0.4-1.024 0.672-2.192 0.752-3.888 0.064-1.712 0.096-2.256 0.096-6.592 0-4.352-0.016-4.896-0.080-6.592zM29.072 22.464c-0.064 1.568-0.32 2.4-0.544 2.976-0.544 1.392-1.648 2.496-3.040 3.040-0.56 0.208-1.408 0.48-2.96 0.544-1.696 0.080-2.208 0.096-6.464 0.096-4.272 0-4.784-0.016-6.464-0.096-1.568-0.064-2.416-0.336-2.976-0.544-0.688-0.256-1.328-0.672-1.84-1.2-0.528-0.528-0.928-1.152-1.184-1.84-0.224-0.56-0.496-1.408-0.56-2.976-0.080-1.68-0.096-2.192-0.096-6.464 0-4.256 0.016-4.768 0.096-6.464 0.064-1.552 0.336-2.4 0.56-2.96 0.256-0.688 0.656-1.328 1.2-1.84 0.512-0.528 1.136-0.944 1.824-1.2 0.576-0.208 1.424-0.48 2.976-0.544 1.696-0.080 2.192-0.096 6.464-0.096s4.784 0.016 6.464 0.096c1.568 0.064 2.4 0.336 2.976 0.544 0.688 0.256 1.312 0.672 1.824 1.2 0.544 0.512 0.944 1.152 1.2 1.84 0.224 0.56 0.48 1.408 0.544 2.96 0.080 1.696 0.096 2.208 0.096 6.464 0 4.272-0.016 4.784-0.096 6.464z"></path>
<path d="M16.048 7.776c-4.528 0-8.224 3.68-8.224 8.224 0 4.528 3.696 8.208 8.224 8.208 4.544 0 8.224-3.68 8.224-8.208 0-4.544-3.68-8.224-8.224-8.224zM16.048 21.328c-2.944 0-5.328-2.384-5.328-5.328s2.384-5.344 5.328-5.344c2.944 0 5.328 2.4 5.328 5.344s-2.384 5.328-5.328 5.328z"></path>
<path d="M26.512 7.456c0 1.056-0.848 1.92-1.92 1.92-1.056 0-1.92-0.864-1.92-1.92 0-1.072 0.864-1.92 1.92-1.92 1.072 0 1.92 0.848 1.92 1.92z"></path>
</symbol>
<symbol id="icon-linkedin" viewBox="0 0 32 32">
<path d="M31.984 32v-0.016h0.016v-11.728c0-5.744-1.248-10.16-7.952-10.16-3.232 0-5.392 1.76-6.272 3.44h-0.096v-2.912h-6.368v21.36h6.624v-10.576c0-2.784 0.528-5.472 3.984-5.472 3.392 0 3.44 3.184 3.44 5.648v10.416h6.624z"></path>
<path d="M0.528 10.624h6.624v21.376h-6.624v-21.376z"></path>
<path d="M3.84 0c-2.128 0-3.84 1.712-3.84 3.84 0 2.112 1.712 3.872 3.84 3.872 2.112 0 3.84-1.76 3.84-3.872 0-2.128-1.728-3.84-3.84-3.84v0z"></path>
</symbol>
<symbol id="icon-twitter" viewBox="0 0 32 32">
<path d="M32 6.064c-1.2 0.528-2.464 0.88-3.792 1.040 1.36-0.816 2.4-2.080 2.896-3.632-1.28 0.768-2.672 1.296-4.16 1.6-1.216-1.28-2.928-2.080-4.8-2.080-3.632 0-6.56 2.944-6.56 6.56 0 0.528 0.048 1.024 0.16 1.504-5.456-0.272-10.288-2.88-13.52-6.864-0.576 0.976-0.896 2.096-0.896 3.312 0 2.272 1.168 4.288 2.912 5.456-1.056-0.016-2.096-0.336-2.96-0.816 0 0.016 0 0.048 0 0.080 0 3.184 2.272 5.84 5.248 6.448-0.528 0.144-1.12 0.208-1.728 0.208-0.416 0-0.832-0.016-1.232-0.112 0.848 2.608 3.264 4.512 6.128 4.576-2.224 1.744-5.072 2.8-8.128 2.8-0.544 0-1.056-0.032-1.568-0.096 2.896 1.872 6.336 2.944 10.048 2.944 12.080 0 18.672-10 18.672-18.672 0-0.288 0-0.56-0.016-0.848 1.296-0.912 2.4-2.080 3.296-3.408z"></path>
</symbol>
</defs>
</svg>
